<svg xmlns="http://www.w3.org/2000/svg" viewBox="0 0 1200 250" width="1200" height="250" role="img" aria-labelledby="title">
  <title id="title">MITRE ATTACK Mapping Header</title>

  <!-- Background gradient -->
  <defs>
    <linearGradient id="bgGrad" x1="0" y1="0" x2="0" y2="1">
      <stop offset="0%" stop-color="#0c1118"/>
      <stop offset="100%" stop-color="#121c28"/>
    </linearGradient>

    <linearGradient id="gridLine" x1="0" x2="1">
      <stop offset="0%" stop-color="#1a3d5a"/>
      <stop offset="100%" stop-color="#2d9cdb"/>
    </linearGradient>

    <linearGradient id="accentRed" x1="0" x2="1">
      <stop offset="0%" stop-color="#a6212e"/>
      <stop offset="100%" stop-color="#ff4f58"/>
    </linearGradient>

    <filter id="softGlow">
      <feGaussianBlur stdDeviation="2.5" result="blur"/>
      <feMerge>
        <feMergeNode in="blur"/>
        <feMergeNode in="SourceGraphic"/>
      </feMerge>
    </filter>
  </defs>

  <!-- Background -->
  <rect width="1200" height="250" rx="16" fill="url(#bgGrad)" />

  <!-- Stylized “matrix” effect -->
  <g stroke="url(#gridLine)" stroke-width="1" opacity="0.3">
    <line x1="100" y1="80" x2="1100" y2="80"/>
    <line x1="100" y1="120" x2="1100" y2="120"/>
    <line x1="100" y1="160" x2="1100" y2="160"/>
    <line x1="100" y1="200" x2="1100" y2="200"/>
    <line x1="200" y1="60" x2="200" y2="210"/>
    <line x1="400" y1="60" x2="400" y2="210"/>
    <line x1="600" y1="60" x2="600" y2="210"/>
    <line x1="800" y1="60" x2="800" y2="210"/>
    <line x1="1000" y1="60" x2="1000" y2="210"/>
  </g>

  <!-- Red accent path to indicate “mapped techniques” -->
  <path d="M180 170 L380 130 L580 180 L780 100 L980 140"
        stroke="url(#accentRed)" stroke-width="3.5" fill="none"
        filter="url(#softGlow)" />

  <!-- Dots on the path -->
  <g fill="#ff6b6b" filter="url(#softGlow)">
    <circle cx="180" cy="170" r="5"/>
    <circle cx="380" cy="130" r="5"/>
    <circle cx="580" cy="180" r="5"/>
    <circle cx="780" cy="100" r="5"/>
    <circle cx="980" cy="140" r="5"/>
  </g>

  <!-- Header text -->
  <text x="50%" y="45" text-anchor="middle"
        fill="#e8f7ff"
        font-size="34"
        font-weight="700"
        font-family="Inter, Roboto, Arial, sans-serif">
    MITRE ATTACK Mapping
  </text>
  <text x="50%" y="75" text-anchor="middle"
        fill="#8bbfd3"
        font-size="16"
        font-weight="400">
    Mapped Adversary Behavior Techniques
  </text>

  <!-- Subtle footer line -->
  <rect x="100" y="220" width="1000" height="1" fill="#2b3b49" opacity="0.5"/>
</svg>
