<svg xmlns="http://www.w3.org/2000/svg" viewBox="0 0 1200 250" width="1200" height="250" role="img" aria-labelledby="title">
  <title id="title">MITRE ATTACK Mapping Header (Blue Version)</title>

  <!-- Background gradient -->
  <defs>
    <linearGradient id="bgGrad" x1="0" y1="0" x2="0" y2="1">
      <stop offset="0%" stop-color="#02121e"/>
      <stop offset="50%" stop-color="#0a2e3f"/>
      <stop offset="100%" stop-color="#123e52"/>
    </linearGradient>

    <linearGradient id="gridLine" x1="0" x2="1">
      <stop offset="0%" stop-color="#2a6c90"/>
      <stop offset="100%" stop-color="#6fd3ff"/>
    </linearGradient>

    <linearGradient id="accentBlue" x1="0" x2="1">
      <stop offset="0%" stop-color="#00C9FF"/>
      <stop offset="100%" stop-color="#6fd3ff"/>
    </linearGradient>

    <filter id="softGlow">
      <feGaussianBlur stdDeviation="2" result="blur"/>
      <feMerge>
        <feMergeNode in="blur"/>
        <feMergeNode in="SourceGraphic"/>
      </feMerge>
    </filter>
  </defs>

  <!-- Background -->
  <rect width="1200" height="250" rx="16" fill="url(#bgGrad)" />

  <!-- Stylized “matrix” grid -->
  <g stroke="url(#gridLine)" stroke-width="1" opacity="0.25">
    <line x1="100" y1="80" x2="1100" y2="80"/>
    <line x1="100" y1="120" x2="1100" y2="120"/>
    <line x1="100" y1="160" x2="1100" y2="160"/>
    <line x1="100" y1="200" x2="1100" y2="200"/>
    <line x1="200" y1="60" x2="200" y2="210"/>
    <line x1="400" y1="60" x2="400" y2="210"/>
    <line x1="600" y1="60" x2="600" y2="210"/>
    <line x1="800" y1="60" x2="800" y2="210"/>
    <line x1="1000" y1="60" x2="1000" y2="210"/>
  </g>

  <!-- Blue accent path to indicate “mapped techniques” -->
  <path d="M180 170 L380 130 L580 180 L780 100 L980 140"
        stroke="url(#accentBlue)" stroke-width="3" fill="none"
        filter="url(#softGlow)" opacity="0.8"/>

  <!-- Dots on the path -->
  <g fill="#6fd3ff" filter="url(#softGlow)">
    <circle cx="180" cy="170" r="5"/>
    <circle cx="380" cy="130" r="5"/>
    <circle cx="580" cy="180" r="5"/>
    <circle cx="780" cy="100" r="5"/>
    <circle cx="980" cy="140" r="5"/>
  </g>

  <!-- Header text -->
  <text x="50%" y="45" text-anchor="middle"
        fill="#e6f7ff"
        font-size="34"
        font-weight="700"
        font-family="Inter, Roboto, Arial, sans-serif">
    MITRE ATTACK Mapping
  </text>

  <text x="50%" y="75" text-anchor="middle"
        fill="#a7d3ea"
        font-size="16"
        font-weight="400"
        font-family="Inter, Roboto, Arial, sans-serif">
    Mapped Adversary Behavior Techniques
  </text>

  <!-- Subtle bottom accent line -->
  <rect x="100" y="220" width="1000" height="1" fill="#2da8d8" opacity="0.4"/>
</svg>
